<?xml version="1.0" encoding="UTF-8" standalone="no"?>
<!DOCTYPE svg PUBLIC "-//W3C//DTD SVG 1.1//EN"
 "http://www.w3.org/Graphics/SVG/1.1/DTD/svg11.dtd">
<!-- Generated by graphviz version 2.40.1 (20161225.0304)
 -->
<!-- Title: build_proc_traces Pages: 1 -->
<svg width="491pt" height="147pt"
 viewBox="0.00 0.00 491.00 146.50" xmlns="http://www.w3.org/2000/svg" xmlns:xlink="http://www.w3.org/1999/xlink">
<g id="graph0" class="graph" transform="scale(1 1) rotate(0) translate(4 142.5)">
<title>build_proc_traces</title>
<polygon fill="#ffffff" stroke="transparent" points="-4,4 -4,-142.5 487,-142.5 487,4 -4,4"/>
<!-- src -->
<g id="node1" class="node">
<title>src</title>
<polygon fill="none" stroke="#000000" points="0,-26.5 0,-64.5 157,-64.5 157,-26.5 0,-26.5"/>
<text text-anchor="middle" x="78.5" y="-49.3" font-family="verdana" font-size="14.00" fill="#000000">source files</text>
<text text-anchor="middle" x="78.5" y="-34.3" font-family="verdana" font-size="14.00" fill="#000000"> { trace_event(...) }</text>
</g>
<!-- elf -->
<g id="node2" class="node">
<title>elf</title>
<polygon fill="none" stroke="#000000" points="234,-7 234,-138 380,-138 380,-7 234,-7"/>
<text text-anchor="middle" x="307" y="-122.8" font-family="verdana" font-size="14.00" fill="#000000">ELF</text>
<polyline fill="none" stroke="#000000" points="234,-115 380,-115 "/>
<text text-anchor="middle" x="307" y="-99.8" font-family="verdana" font-size="14.00" fill="#000000">.text</text>
<polyline fill="none" stroke="#000000" points="234,-92 380,-92 "/>
<text text-anchor="middle" x="307" y="-76.8" font-family="verdana" font-size="14.00" fill="#000000">.data</text>
<polyline fill="none" stroke="#000000" points="234,-69 380,-69 "/>
<text text-anchor="middle" x="307" y="-53.8" font-family="verdana" font-size="14.00" fill="#000000">...</text>
<polyline fill="none" stroke="#000000" points="234,-30 380,-30 "/>
<text text-anchor="middle" x="307" y="-14.8" font-family="verdana" font-size="14.00" fill="#000000">.static_log_entries</text>
</g>
<!-- src&#45;&gt;elf -->
<g id="edge1" class="edge">
<title>src&#45;&gt;elf</title>
<path fill="none" stroke="#000000" d="M157.1568,-59.0827C163.1863,-59.9582 169.1859,-60.777 175,-61.5 190.7799,-63.4624 207.6659,-65.1672 223.9091,-66.6104"/>
<polygon fill="#000000" stroke="#000000" points="223.66,-70.1019 233.9241,-67.4752 224.2623,-63.1278 223.66,-70.1019"/>
</g>
<!-- src&#45;&gt;elf -->
<g id="edge2" class="edge">
<title>src&#45;&gt;elf:sle</title>
<path fill="none" stroke="#000000" stroke-dasharray="1,5" d="M124.3288,-26.3828C140.1,-20.7368 158.0577,-15.3168 175,-12.5 192.9755,-9.5114 198.0131,-9.5811 216,-12.5 219.6417,-13.091 221.9281,-14.3133 224.0543,-15.5014"/>
<polygon fill="#000000" stroke="#000000" points="223.4153,-18.9643 234,-18.5 225.436,-12.2623 223.4153,-18.9643"/>
<text text-anchor="middle" x="195.5" y="-46.3" font-family="verdana" font-size="14.00" fill="#000000">trace</text>
<text text-anchor="middle" x="195.5" y="-31.3" font-family="verdana" font-size="14.00" fill="#000000">event</text>
<text text-anchor="middle" x="195.5" y="-16.3" font-family="verdana" font-size="14.00" fill="#000000">data</text>
</g>
<!-- ri -->
<g id="node3" class="node">
<title>ri</title>
<polygon fill="none" stroke="#000000" points="419,-60.5 419,-96.5 481,-96.5 481,-60.5 419,-60.5"/>
<text text-anchor="middle" x="450" y="-74.8" font-family="verdana" font-size="14.00" fill="#000000">sof&#45; .ri</text>
</g>
<!-- elf&#45;&gt;ri -->
<g id="edge3" class="edge">
<title>elf:text&#45;&gt;ri</title>
<path fill="none" stroke="#000000" d="M380,-103.5C389.7692,-103.5 399.8819,-101.3138 409.2807,-98.2344"/>
<polygon fill="#000000" stroke="#000000" points="410.5872,-101.4833 418.7724,-94.7562 408.1787,-94.9107 410.5872,-101.4833"/>
</g>
<!-- elf&#45;&gt;ri -->
<g id="edge4" class="edge">
<title>elf:data&#45;&gt;ri</title>
<path fill="none" stroke="#000000" d="M380,-80.5C389.3748,-80.5 399.4529,-80.3185 408.9601,-80.065"/>
<polygon fill="#000000" stroke="#000000" points="409.1005,-83.5624 418.992,-79.7666 408.8924,-76.5655 409.1005,-83.5624"/>
</g>
<!-- elf&#45;&gt;ri -->
<g id="edge5" class="edge">
<title>elf:others&#45;&gt;ri</title>
<path fill="none" stroke="#000000" d="M380,-49.5C390.6664,-49.5 401.5986,-52.4094 411.558,-56.3852"/>
<polygon fill="#000000" stroke="#000000" points="410.2076,-59.615 420.7684,-60.4637 413.0418,-53.2144 410.2076,-59.615"/>
</g>
<!-- lcd_file -->
<g id="node4" class="node">
<title>lcd_file</title>
<polygon fill="none" stroke="#000000" points="417,-.5 417,-36.5 483,-36.5 483,-.5 417,-.5"/>
<text text-anchor="middle" x="450" y="-14.8" font-family="verdana" font-size="14.00" fill="#000000">lcd_file</text>
</g>
<!-- elf&#45;&gt;lcd_file -->
<g id="edge6" class="edge">
<title>elf:sle&#45;&gt;lcd_file</title>
<path fill="none" stroke="#000000" stroke-dasharray="1,5" d="M380,-18.5C388.6475,-18.5 397.8958,-18.5 406.7429,-18.5"/>
<polygon fill="#000000" stroke="#000000" points="406.8844,-22.0001 416.8843,-18.5 406.8843,-15.0001 406.8844,-22.0001"/>
</g>
</g>
</svg>
