<?xml version="1.0" encoding="UTF-8" standalone="no"?>
<!DOCTYPE svg PUBLIC "-//W3C//DTD SVG 1.1//EN"
 "http://www.w3.org/Graphics/SVG/1.1/DTD/svg11.dtd">
<!-- Generated by graphviz version 2.40.1 (20161225.0304)
 -->
<!-- Title: runtime_zone Pages: 1 -->
<svg width="180pt" height="133pt"
 viewBox="0.00 0.00 180.00 133.26" xmlns="http://www.w3.org/2000/svg" xmlns:xlink="http://www.w3.org/1999/xlink">
<g id="graph0" class="graph" transform="scale(.6316 .6316) rotate(0) translate(4 207)">
<title>runtime_zone</title>
<polygon fill="#ffffff" stroke="transparent" points="-4,4 -4,-207 281,-207 281,4 -4,4"/>
<g id="clust1" class="cluster">
<title>cluster_rt_0</title>
<polygon fill="none" stroke="#000000" points="117,-8 117,-195 269,-195 269,-8 117,-8"/>
<text text-anchor="middle" x="193" y="-179.8" font-family="verdana" font-size="14.00" fill="#000000">RUNTIME HEAP #0</text>
</g>
<g id="clust2" class="cluster">
<title>cluster_core_0</title>
<polygon fill="#f0f0f0" stroke="#f0f0f0" points="8,-16 8,-180 97,-180 97,-16 8,-16"/>
</g>
<!-- map0 -->
<g id="node1" class="node">
<title>map0</title>
<polygon fill="none" stroke="#000000" points="166,-127 166,-163 220,-163 220,-127 166,-127"/>
<text text-anchor="middle" x="193" y="-141.3" font-family="verdana" font-size="14.00" fill="#000000">map</text>
</g>
<!-- rt0 -->
<g id="node2" class="node">
<title>rt0</title>
<polygon fill="none" stroke="#000000" points="125,-16 125,-108 261,-108 261,-16 125,-16"/>
<text text-anchor="middle" x="150" y="-92.8" font-family="verdana" font-size="14.00" fill="#000000">64B</text>
<polyline fill="none" stroke="#000000" points="175,-85 175,-108 "/>
<text text-anchor="middle" x="200" y="-92.8" font-family="verdana" font-size="14.00" fill="#000000">64B</text>
<polyline fill="none" stroke="#000000" points="225,-85 225,-108 "/>
<text text-anchor="middle" x="243" y="-92.8" font-family="verdana" font-size="14.00" fill="#000000">...</text>
<polyline fill="none" stroke="#000000" points="125,-85 261,-85 "/>
<text text-anchor="middle" x="151.5" y="-69.8" font-family="verdana" font-size="14.00" fill="#000000">128B</text>
<polyline fill="none" stroke="#000000" points="178,-62 178,-85 "/>
<text text-anchor="middle" x="204.5" y="-69.8" font-family="verdana" font-size="14.00" fill="#000000">128B</text>
<polyline fill="none" stroke="#000000" points="231,-62 231,-85 "/>
<text text-anchor="middle" x="246" y="-69.8" font-family="verdana" font-size="14.00" fill="#000000">...</text>
<polyline fill="none" stroke="#000000" points="125,-62 261,-62 "/>
<text text-anchor="middle" x="151.5" y="-46.8" font-family="verdana" font-size="14.00" fill="#000000">256B</text>
<polyline fill="none" stroke="#000000" points="178,-39 178,-62 "/>
<text text-anchor="middle" x="204.5" y="-46.8" font-family="verdana" font-size="14.00" fill="#000000">256B</text>
<polyline fill="none" stroke="#000000" points="231,-39 231,-62 "/>
<text text-anchor="middle" x="246" y="-46.8" font-family="verdana" font-size="14.00" fill="#000000">...</text>
<polyline fill="none" stroke="#000000" points="125,-39 261,-39 "/>
<text text-anchor="middle" x="193" y="-23.8" font-family="verdana" font-size="14.00" fill="#000000">....</text>
</g>
<!-- comp_0 -->
<g id="node3" class="node">
<title>comp_0</title>
<polygon fill="none" stroke="#000000" points="16,-80 16,-116 89,-116 89,-80 16,-80"/>
<text text-anchor="middle" x="52.5" y="-94.3" font-family="verdana" font-size="14.00" fill="#000000">comp_0</text>
</g>
<!-- comp_0&#45;&gt;rt0 -->
<g id="edge1" class="edge">
<title>comp_0&#45;&gt;rt0:nw</title>
<path fill="none" stroke="#000000" d="M89.1971,-106.9019C115.1751,-112.3644 148.4021,-117.4726 165.9591,-112.6772"/>
<polygon fill="#000000" stroke="#000000" points="167.7264,-115.7036 175,-108 164.5099,-109.4863 167.7264,-115.7036"/>
</g>
<!-- comp_0&#45;&gt;rt0 -->
<g id="edge2" class="edge">
<title>comp_0&#45;&gt;rt0:nw</title>
<path fill="none" stroke="#000000" d="M89.255,-99.6C98.8116,-98.5883 108.7422,-96.1663 117.0351,-91.1771"/>
<polygon fill="#000000" stroke="#000000" points="119.2428,-93.8942 125,-85 114.9529,-88.3627 119.2428,-93.8942"/>
</g>
<!-- comp_1 -->
<g id="node4" class="node">
<title>comp_1</title>
<polygon fill="none" stroke="#000000" points="16,-25 16,-61 89,-61 89,-25 16,-25"/>
<text text-anchor="middle" x="52.5" y="-39.3" font-family="verdana" font-size="14.00" fill="#000000">comp_1</text>
</g>
<!-- comp_1&#45;&gt;rt0 -->
<g id="edge3" class="edge">
<title>comp_1&#45;&gt;rt0:nw</title>
<path fill="none" stroke="#000000" d="M84.9653,-61.0738C110.4566,-72.8572 145.5858,-83.5022 169.8888,-68.44"/>
<polygon fill="#000000" stroke="#000000" points="172.3446,-70.9592 178,-62 167.9919,-65.477 172.3446,-70.9592"/>
</g>
<!-- comp_2 -->
<g id="node5" class="node">
<title>comp_2</title>
<polygon fill="none" stroke="#000000" points="16,-135 16,-171 89,-171 89,-135 16,-135"/>
<text text-anchor="middle" x="52.5" y="-149.3" font-family="verdana" font-size="14.00" fill="#000000">comp_2</text>
</g>
<!-- comp_2&#45;&gt;rt0 -->
<g id="edge4" class="edge">
<title>comp_2&#45;&gt;rt0:nw</title>
<path fill="none" stroke="#000000" d="M88.7852,-134.9045C98.3646,-129.2806 108.5234,-122.5281 117.4815,-114.9104"/>
<polygon fill="#000000" stroke="#000000" points="120.0059,-117.344 125,-108 115.269,-112.1902 120.0059,-117.344"/>
</g>
</g>
</svg>
