<?xml version="1.0" encoding="UTF-8" standalone="no"?>
<!DOCTYPE svg PUBLIC "-//W3C//DTD SVG 1.1//EN"
 "http://www.w3.org/Graphics/SVG/1.1/DTD/svg11.dtd">
<!-- Generated by graphviz version 2.40.1 (20161225.0304)
 -->
<!-- Title: system_zone Pages: 1 -->
<svg width="182pt" height="288pt"
 viewBox="0.00 0.00 181.59 288.00" xmlns="http://www.w3.org/2000/svg" xmlns:xlink="http://www.w3.org/1999/xlink">
<g id="graph0" class="graph" transform="scale(.6372 .6372) rotate(0) translate(4 448)">
<title>system_zone</title>
<polygon fill="#ffffff" stroke="transparent" points="-4,4 -4,-448 281,-448 281,4 -4,4"/>
<g id="clust1" class="cluster">
<title>cluster_sys_0</title>
<polygon fill="none" stroke="#000000" points="147,-8 147,-252 269,-252 269,-8 147,-8"/>
<text text-anchor="middle" x="208" y="-236.8" font-family="verdana" font-size="14.00" fill="#000000">SYS HEAP #0</text>
</g>
<g id="clust2" class="cluster">
<title>cluster_sys_1</title>
<polygon fill="none" stroke="#000000" points="147,-260 147,-401 269,-401 269,-260 147,-260"/>
<text text-anchor="middle" x="208" y="-385.8" font-family="verdana" font-size="14.00" fill="#000000">SYS HEAP #1</text>
</g>
<g id="clust3" class="cluster">
<title>cluster_core_0</title>
<polygon fill="#f0f0f0" stroke="#f0f0f0" points="8,-83 8,-270 127,-270 127,-83 8,-83"/>
<text text-anchor="middle" x="67.5" y="-254.8" font-family="verdana" font-size="14.00" fill="#000000">core #0</text>
</g>
<g id="clust4" class="cluster">
<title>cluster_core_1</title>
<polygon fill="#f0f0f0" stroke="#f0f0f0" points="8,-304 8,-436 127,-436 127,-304 8,-304"/>
<text text-anchor="middle" x="67.5" y="-420.8" font-family="verdana" font-size="14.00" fill="#000000">core #1</text>
</g>
<!-- s0 -->
<g id="node1" class="node">
<title>s0</title>
<polygon fill="none" stroke="#000000" points="155,-16 155,-220 261,-220 261,-16 155,-16"/>
<text text-anchor="middle" x="208" y="-204.8" font-family="verdana" font-size="14.00" fill="#000000">block</text>
<polyline fill="none" stroke="#000000" points="155,-165 261,-165 "/>
<text text-anchor="middle" x="208" y="-149.8" font-family="verdana" font-size="14.00" fill="#000000">block</text>
<polyline fill="none" stroke="#000000" points="155,-142 261,-142 "/>
<text text-anchor="middle" x="208" y="-126.8" font-family="verdana" font-size="14.00" fill="#000000">block</text>
<polyline fill="none" stroke="#000000" points="155,-103 261,-103 "/>
<text text-anchor="middle" x="208" y="-87.8" font-family="verdana" font-size="14.00" fill="#000000">free space...</text>
</g>
<!-- s1 -->
<g id="node2" class="node">
<title>s1</title>
<polygon fill="none" stroke="#000000" points="155,-268.5 155,-369.5 261,-369.5 261,-268.5 155,-268.5"/>
<text text-anchor="middle" x="208" y="-354.3" font-family="verdana" font-size="14.00" fill="#000000">block</text>
<polyline fill="none" stroke="#000000" points="155,-346.5 261,-346.5 "/>
<text text-anchor="middle" x="208" y="-331.3" font-family="verdana" font-size="14.00" fill="#000000">block</text>
<polyline fill="none" stroke="#000000" points="155,-307.5 261,-307.5 "/>
<text text-anchor="middle" x="208" y="-292.3" font-family="verdana" font-size="14.00" fill="#000000">free space...</text>
</g>
<!-- ipc -->
<g id="node3" class="node">
<title>ipc</title>
<polygon fill="none" stroke="#000000" points="40.5,-202 40.5,-238 94.5,-238 94.5,-202 40.5,-202"/>
<text text-anchor="middle" x="67.5" y="-216.3" font-family="verdana" font-size="14.00" fill="#000000">ipc</text>
</g>
<!-- ipc&#45;&gt;s0 -->
<g id="edge1" class="edge">
<title>ipc&#45;&gt;s0:nw</title>
<path fill="none" stroke="#000000" d="M94.6163,-228.9785C110.9345,-232.8088 131.4325,-234.695 146.692,-226.2381"/>
<polygon fill="#000000" stroke="#000000" points="149.1048,-228.8032 155,-220 144.9017,-223.2055 149.1048,-228.8032"/>
</g>
<!-- scheduler_0 -->
<g id="node4" class="node">
<title>scheduler_0</title>
<polygon fill="none" stroke="#000000" points="16,-147 16,-183 119,-183 119,-147 16,-147"/>
<text text-anchor="middle" x="67.5" y="-161.3" font-family="verdana" font-size="14.00" fill="#000000">scheduler_0</text>
</g>
<!-- scheduler_0&#45;&gt;s0 -->
<g id="edge2" class="edge">
<title>scheduler_0&#45;&gt;s0:nw</title>
<path fill="none" stroke="#000000" d="M119.3335,-177.2181C129.0435,-177.3066 138.6872,-175.7158 146.8265,-171.1632"/>
<polygon fill="#000000" stroke="#000000" points="149.1227,-173.8152 155,-165 144.9083,-168.2261 149.1227,-173.8152"/>
</g>
<!-- work_0 -->
<g id="node5" class="node">
<title>work_0</title>
<polygon fill="none" stroke="#000000" points="33.5,-92 33.5,-128 101.5,-128 101.5,-92 33.5,-92"/>
<text text-anchor="middle" x="67.5" y="-106.3" font-family="verdana" font-size="14.00" fill="#000000">work_0</text>
</g>
<!-- work_0&#45;&gt;s0 -->
<g id="edge3" class="edge">
<title>work_0&#45;&gt;s0:nw</title>
<path fill="none" stroke="#000000" d="M101.6854,-125.801C116.9884,-132.4992 133.9622,-139.3421 144.6851,-141.8801"/>
<polygon fill="#000000" stroke="#000000" points="144.96,-145.3834 155,-142 145.0414,-138.3839 144.96,-145.3834"/>
</g>
<!-- scheduler_1 -->
<g id="node6" class="node">
<title>scheduler_1</title>
<polygon fill="none" stroke="#000000" points="16,-368 16,-404 119,-404 119,-368 16,-368"/>
<text text-anchor="middle" x="67.5" y="-382.3" font-family="verdana" font-size="14.00" fill="#000000">scheduler_1</text>
</g>
<!-- scheduler_1&#45;&gt;s1 -->
<g id="edge4" class="edge">
<title>scheduler_1&#45;&gt;s1:nw</title>
<path fill="none" stroke="#000000" d="M119.1309,-386.7084C128.9428,-384.9885 138.7153,-381.851 146.986,-376.4636"/>
<polygon fill="#000000" stroke="#000000" points="149.4134,-379.0023 155,-370 145.0189,-373.5536 149.4134,-379.0023"/>
</g>
<!-- work_1 -->
<g id="node7" class="node">
<title>work_1</title>
<polygon fill="none" stroke="#000000" points="33.5,-313 33.5,-349 101.5,-349 101.5,-313 33.5,-313"/>
<text text-anchor="middle" x="67.5" y="-327.3" font-family="verdana" font-size="14.00" fill="#000000">work_1</text>
</g>
<!-- work_1&#45;&gt;s1 -->
<g id="edge5" class="edge">
<title>work_1&#45;&gt;s1:nw</title>
<path fill="none" stroke="#000000" d="M99.9081,-349.1292C115.1283,-355.4609 132.8974,-359.5243 146.6278,-352.9442"/>
<polygon fill="#000000" stroke="#000000" points="148.8724,-355.6431 155,-347 144.8199,-349.9354 148.8724,-355.6431"/>
</g>
</g>
</svg>
