<?xml version="1.0" encoding="UTF-8" standalone="no"?>
<!DOCTYPE svg PUBLIC "-//W3C//DTD SVG 1.1//EN"
 "http://www.w3.org/Graphics/SVG/1.1/DTD/svg11.dtd">
<!-- Generated by graphviz version 2.40.1 (20161225.0304)
 -->
<!-- Title: G Pages: 1 -->
<svg width="247pt" height="154pt"
 viewBox="0.00 0.00 247.00 154.00" xmlns="http://www.w3.org/2000/svg" xmlns:xlink="http://www.w3.org/1999/xlink">
<g id="graph0" class="graph" transform="scale(1 1) rotate(0) translate(4 150)">
<title>G</title>
<polygon fill="#ffffff" stroke="transparent" points="-4,4 -4,-150 243,-150 243,4 -4,4"/>
<!-- dsp -->
<g id="node1" class="node">
<title>dsp</title>
<polygon fill="none" stroke="#000000" points="10,-46.5 10,-82.5 64,-82.5 64,-46.5 10,-46.5"/>
<text text-anchor="middle" x="37" y="-62" font-family="verdana" font-size="10.00" fill="#000000">DSP</text>
</g>
<!-- mem_alias -->
<g id="node3" class="node">
<title>mem_alias</title>
<polygon fill="none" stroke="#000000" points="171,-109.5 171,-145.5 239,-145.5 239,-109.5 171,-109.5"/>
<text text-anchor="middle" x="205" y="-130.5" font-family="verdana" font-size="10.00" fill="#000000">Alias</text>
<text text-anchor="middle" x="205" y="-119.5" font-family="verdana" font-size="10.00" fill="#000000">8000 0000</text>
</g>
<!-- dsp&#45;&gt;mem_alias -->
<g id="edge1" class="edge">
<title>dsp&#45;&gt;mem_alias:a</title>
<path fill="none" stroke="#000000" d="M64.366,-74.7623C90.6261,-84.6098 130.7086,-99.6407 161.3731,-111.1399"/>
<polygon fill="#000000" stroke="#000000" points="160.3765,-114.5041 170.9687,-114.7383 162.8344,-107.9498 160.3765,-114.5041"/>
<text text-anchor="middle" x="122.5" y="-111.5" font-family="verdana" font-size="10.00" fill="#000000">L1 uncached</text>
</g>
<!-- mem -->
<g id="node4" class="node">
<title>mem</title>
<polygon fill="none" stroke="#000000" points="171,-.5 171,-90.5 239,-90.5 239,-.5 171,-.5"/>
<text text-anchor="middle" x="205" y="-78.5" font-family="verdana" font-size="10.00" fill="#000000">IMR</text>
<text text-anchor="middle" x="205" y="-67.5" font-family="verdana" font-size="10.00" fill="#000000">B000 0000</text>
<polyline fill="none" stroke="#000000" points="171,-60.5 239,-60.5 "/>
<text text-anchor="middle" x="205" y="-48.5" font-family="verdana" font-size="10.00" fill="#000000">HPSRAM</text>
<text text-anchor="middle" x="205" y="-37.5" font-family="verdana" font-size="10.00" fill="#000000">BE00 0000</text>
<polyline fill="none" stroke="#000000" points="171,-30.5 239,-30.5 "/>
<text text-anchor="middle" x="205" y="-18.5" font-family="verdana" font-size="10.00" fill="#000000">LPSRAM</text>
<text text-anchor="middle" x="205" y="-7.5" font-family="verdana" font-size="10.00" fill="#000000">BE80 0000</text>
</g>
<!-- dsp&#45;&gt;mem -->
<g id="edge2" class="edge">
<title>dsp&#45;&gt;mem:imr</title>
<path fill="none" stroke="#000000" d="M64.1169,-66.726C93.9421,-69.1744 140.3457,-72.9836 160.7665,-74.6599"/>
<polygon fill="#000000" stroke="#000000" points="160.7471,-78.17 171,-75.5 161.3199,-71.1935 160.7471,-78.17"/>
<text text-anchor="middle" x="122.5" y="-76.5" font-family="verdana" font-size="10.00" fill="#000000">L1 cached</text>
</g>
<!-- dsp&#45;&gt;mem -->
<g id="edge3" class="edge">
<title>dsp&#45;&gt;mem:hpsram</title>
<path fill="none" stroke="#000000" d="M64.1169,-60.6551C94.0951,-56.4044 140.8221,-49.779 161.0786,-46.9068"/>
<polygon fill="#000000" stroke="#000000" points="161.5904,-50.3693 171,-45.5 160.6076,-43.4386 161.5904,-50.3693"/>
<text text-anchor="middle" x="122.5" y="-56.5" font-family="verdana" font-size="10.00" fill="#000000">L1 cached</text>
</g>
<!-- dsp&#45;&gt;mem -->
<g id="edge4" class="edge">
<title>dsp&#45;&gt;mem:lpsram</title>
<path fill="none" stroke="#000000" d="M64.1169,-54.5841C94.248,-43.566 141.2993,-26.3607 161.3866,-19.0154"/>
<polygon fill="#000000" stroke="#000000" points="162.8102,-22.2215 171,-15.5 160.4062,-15.6472 162.8102,-22.2215"/>
<text text-anchor="middle" x="122.5" y="-34.5" font-family="verdana" font-size="10.00" fill="#000000">L1 cached</text>
</g>
<!-- mem_rom -->
<g id="node2" class="node">
<title>mem_rom</title>
<polygon fill="none" stroke="#000000" points="0,-102 0,-143 74,-143 74,-102 0,-102"/>
<text text-anchor="middle" x="37" y="-131" font-family="verdana" font-size="10.00" fill="#000000">ROM</text>
<text text-anchor="middle" x="37" y="-120" font-family="verdana" font-size="10.00" fill="#000000">BEFE 00000</text>
<text text-anchor="middle" x="37" y="-109" font-family="verdana" font-size="10.00" fill="#000000">(128K)</text>
</g>
</g>
</svg>
