<?xml version="1.0" encoding="UTF-8" standalone="no"?>
<!DOCTYPE svg PUBLIC "-//W3C//DTD SVG 1.1//EN"
 "http://www.w3.org/Graphics/SVG/1.1/DTD/svg11.dtd">
<!-- Generated by graphviz version 2.40.1 (20161225.0304)
 -->
<!-- Title: build_proc_traces Pages: 1 -->
<svg width="698pt" height="110pt"
 viewBox="0.00 0.00 698.00 109.50" xmlns="http://www.w3.org/2000/svg" xmlns:xlink="http://www.w3.org/1999/xlink">
<g id="graph0" class="graph" transform="scale(1 1) rotate(0) translate(4 105.5)">
<title>build_proc_traces</title>
<polygon fill="#ffffff" stroke="transparent" points="-4,4 -4,-105.5 694,-105.5 694,4 -4,4"/>
<!-- ri -->
<g id="node1" class="node">
<title>ri</title>
<polygon fill="none" stroke="#000000" points="2,-55.5 2,-91.5 64,-91.5 64,-55.5 2,-55.5"/>
<text text-anchor="middle" x="33" y="-69.8" font-family="verdana" font-size="14.00" fill="#000000">sof&#45; .ri</text>
</g>
<!-- dsp -->
<g id="node3" class="node">
<title>dsp</title>
<polygon fill="#92d050" stroke="#92d050" points="103,-53.5 103,-91.5 167,-91.5 167,-53.5 103,-53.5"/>
<text text-anchor="middle" x="135" y="-76.3" font-family="verdana" font-size="14.00" fill="#000000">FW</text>
<text text-anchor="middle" x="135" y="-61.3" font-family="verdana" font-size="14.00" fill="#000000">@ DSP</text>
</g>
<!-- ri&#45;&gt;dsp -->
<g id="edge1" class="edge">
<title>ri&#45;&gt;dsp</title>
<path fill="none" stroke="#000000" d="M64.1576,-73.1945C73.1927,-73.106 83.2123,-73.0077 92.8034,-72.9137"/>
<polygon fill="#000000" stroke="#000000" points="93.0107,-76.4119 102.9758,-72.814 92.942,-69.4123 93.0107,-76.4119"/>
</g>
<!-- lcd_file -->
<g id="node2" class="node">
<title>lcd_file</title>
<polygon fill="none" stroke="#000000" points="0,-.5 0,-36.5 66,-36.5 66,-.5 0,-.5"/>
<text text-anchor="middle" x="33" y="-14.8" font-family="verdana" font-size="14.00" fill="#000000">lcd_file</text>
</g>
<!-- logger -->
<g id="node6" class="node">
<title>logger</title>
<polygon fill="none" stroke="#000000" points="486,-12.5 486,-48.5 548,-48.5 548,-12.5 486,-12.5"/>
<text text-anchor="middle" x="517" y="-26.8" font-family="verdana" font-size="14.00" fill="#000000">logger</text>
</g>
<!-- lcd_file&#45;&gt;logger -->
<g id="edge5" class="edge">
<title>lcd_file&#45;&gt;logger</title>
<path fill="none" stroke="#000000" stroke-dasharray="1,5" d="M66.0745,-18.5C86.0358,-18.5 111.9792,-18.5 135,-18.5 135,-18.5 135,-18.5 418,-18.5 437.1041,-18.5 458.1323,-20.7294 475.8765,-23.2664"/>
<polygon fill="#000000" stroke="#000000" points="475.4946,-26.7484 485.9052,-24.7812 476.5401,-19.8269 475.4946,-26.7484"/>
</g>
<!-- drv -->
<g id="node4" class="node">
<title>drv</title>
<polygon fill="#92d050" stroke="#92d050" points="284,-51.5 284,-89.5 350,-89.5 350,-51.5 284,-51.5"/>
<text text-anchor="middle" x="317" y="-74.3" font-family="verdana" font-size="14.00" fill="#000000">Driver</text>
<text text-anchor="middle" x="317" y="-59.3" font-family="verdana" font-size="14.00" fill="#000000">@ host</text>
</g>
<!-- dsp&#45;&gt;drv -->
<g id="edge2" class="edge">
<title>dsp&#45;&gt;drv</title>
<path fill="none" stroke="#000000" stroke-dasharray="5,2" d="M167.119,-72.147C196.7695,-71.8212 241.0357,-71.3348 273.7802,-70.9749"/>
<polygon fill="#000000" stroke="#000000" points="274.0127,-74.4727 283.9736,-70.8629 273.9357,-67.4731 274.0127,-74.4727"/>
<text text-anchor="middle" x="225.5" y="-90.3" font-family="verdana" font-size="14.00" fill="#000000">&lt;&lt;dma&gt;&gt;</text>
<text text-anchor="middle" x="225.5" y="-75.3" font-family="verdana" font-size="14.00" fill="#000000">traces...</text>
</g>
<!-- log -->
<g id="node5" class="node">
<title>log</title>
<polygon fill="none" stroke="#000000" points="387,-51.5 387,-87.5 449,-87.5 449,-51.5 387,-51.5"/>
<text text-anchor="middle" x="418" y="-65.8" font-family="verdana" font-size="14.00" fill="#000000">/sys/...</text>
</g>
<!-- drv&#45;&gt;log -->
<g id="edge3" class="edge">
<title>drv&#45;&gt;log</title>
<path fill="none" stroke="#000000" stroke-dasharray="5,2" d="M350.0712,-70.1726C358.5894,-70.0882 367.8616,-69.9964 376.7395,-69.9085"/>
<polygon fill="#000000" stroke="#000000" points="376.9465,-73.4067 386.9113,-69.8078 376.8771,-66.4071 376.9465,-73.4067"/>
</g>
<!-- log&#45;&gt;logger -->
<g id="edge4" class="edge">
<title>log&#45;&gt;logger</title>
<path fill="none" stroke="#000000" stroke-dasharray="5,2" d="M449.0526,-57.2672C457.7224,-53.8518 467.2733,-50.0893 476.4059,-46.4916"/>
<polygon fill="#000000" stroke="#000000" points="477.696,-49.7453 485.7172,-42.8235 475.1302,-43.2324 477.696,-49.7453"/>
</g>
<!-- tty -->
<g id="node7" class="node">
<title>tty</title>
<polygon fill="none" stroke="#000000" points="636,-12.5 636,-48.5 690,-48.5 690,-12.5 636,-12.5"/>
<text text-anchor="middle" x="663" y="-26.8" font-family="verdana" font-size="14.00" fill="#000000">tty</text>
</g>
<!-- logger&#45;&gt;tty -->
<g id="edge6" class="edge">
<title>logger&#45;&gt;tty</title>
<path fill="none" stroke="#000000" d="M548.3207,-30.5C570.9468,-30.5 601.6065,-30.5 625.5318,-30.5"/>
<polygon fill="#000000" stroke="#000000" points="625.663,-34.0001 635.663,-30.5 625.663,-27.0001 625.663,-34.0001"/>
<text text-anchor="middle" x="592" y="-64.3" font-family="verdana" font-size="14.00" fill="#000000">pretty</text>
<text text-anchor="middle" x="592" y="-49.3" font-family="verdana" font-size="14.00" fill="#000000">printed</text>
<text text-anchor="middle" x="592" y="-34.3" font-family="verdana" font-size="14.00" fill="#000000">traces</text>
</g>
</g>
</svg>
