<?xml version="1.0" encoding="UTF-8" standalone="no"?>
<!DOCTYPE svg PUBLIC "-//W3C//DTD SVG 1.1//EN"
 "http://www.w3.org/Graphics/SVG/1.1/DTD/svg11.dtd">
<!-- Generated by graphviz version 2.40.1 (20161225.0304)
 -->
<!-- Title: G Pages: 1 -->
<svg width="592pt" height="463pt"
 viewBox="0.00 0.00 592.00 463.00" xmlns="http://www.w3.org/2000/svg" xmlns:xlink="http://www.w3.org/1999/xlink">
<g id="graph0" class="graph" transform="scale(1 1) rotate(0) translate(4 459)">
<title>G</title>
<polygon fill="#ffffff" stroke="transparent" points="-4,4 -4,-459 588,-459 588,4 -4,4"/>
<g id="clust1" class="cluster">
<title>clusterDsp</title>
<polygon fill="none" stroke="#c0c0c0" points="8,-8 8,-447 78,-447 78,-8 8,-8"/>
</g>
<g id="clust2" class="cluster">
<title>clusterL1</title>
<polygon fill="none" stroke="#c0c0c0" points="170.5,-228 170.5,-447 240.5,-447 240.5,-228 170.5,-228"/>
</g>
<g id="clust3" class="cluster">
<title>clusterImr</title>
<polygon fill="none" stroke="#c0c0c0" points="506,-167 506,-386 576,-386 576,-167 506,-167"/>
</g>
<!-- dsp_1 -->
<g id="node1" class="node">
<title>dsp_1</title>
<polygon fill="#f0f0f0" stroke="#f0f0f0" points="16,-402 16,-438 70,-438 70,-402 16,-402"/>
<text text-anchor="middle" x="43" y="-417.5" font-family="verdana" font-size="10.00" fill="#000000">DSP</text>
</g>
<!-- l1_1 -->
<g id="node9" class="node">
<title>l1_1</title>
<polygon fill="#e0e0e0" stroke="#e0e0e0" points="178.5,-402 178.5,-438 232.5,-438 232.5,-402 178.5,-402"/>
<text text-anchor="middle" x="205.5" y="-417.5" font-family="verdana" font-size="10.00" fill="#000000">L1</text>
</g>
<!-- dsp_1&#45;&gt;l1_1 -->
<g id="edge1" class="edge">
<title>dsp_1&#45;&gt;l1_1</title>
<path fill="none" stroke="#000000" d="M70.1988,-420C70.1988,-420 168.4833,-420 168.4833,-420"/>
<polygon fill="#000000" stroke="#000000" points="168.4833,-423.5001 178.4833,-420 168.4833,-416.5001 168.4833,-423.5001"/>
</g>
<!-- dsp_2 -->
<g id="node2" class="node">
<title>dsp_2</title>
<polygon fill="#f0f0f0" stroke="#f0f0f0" points="16,-347 16,-383 70,-383 70,-347 16,-347"/>
<text text-anchor="middle" x="43" y="-362.5" font-family="verdana" font-size="10.00" fill="#000000">DSP</text>
</g>
<!-- l1_2 -->
<g id="node10" class="node">
<title>l1_2</title>
<polygon fill="#e0e0e0" stroke="#e0e0e0" points="178.5,-347 178.5,-383 232.5,-383 232.5,-347 178.5,-347"/>
<text text-anchor="middle" x="205.5" y="-362.5" font-family="verdana" font-size="10.00" fill="#000000">L1</text>
</g>
<!-- dsp_2&#45;&gt;l1_2 -->
<g id="edge4" class="edge">
<title>dsp_2&#45;&gt;l1_2</title>
<path fill="none" stroke="#000000" d="M70.1988,-365C70.1988,-365 168.4833,-365 168.4833,-365"/>
<polygon fill="#000000" stroke="#000000" points="168.4833,-368.5001 178.4833,-365 168.4833,-361.5001 168.4833,-368.5001"/>
</g>
<!-- dsp_3 -->
<g id="node3" class="node">
<title>dsp_3</title>
<polygon fill="#f0f0f0" stroke="#f0f0f0" points="16,-182 16,-218 70,-218 70,-182 16,-182"/>
<text text-anchor="middle" x="43" y="-197.5" font-family="verdana" font-size="10.00" fill="#000000">DSP</text>
</g>
<!-- hpsram_l2_3 -->
<g id="node14" class="node">
<title>hpsram_l2_3</title>
<polygon fill="#d0d0d0" stroke="#d0d0d0" points="342,-182 342,-218 413,-218 413,-182 342,-182"/>
<text text-anchor="middle" x="377.5" y="-197.5" font-family="verdana" font-size="10.00" fill="#000000">HPSRAM L2</text>
</g>
<!-- dsp_3&#45;&gt;hpsram_l2_3 -->
<g id="edge6" class="edge">
<title>dsp_3&#45;&gt;hpsram_l2_3</title>
<path fill="none" stroke="#000000" d="M70.0902,-200C70.0902,-200 331.9801,-200 331.9801,-200"/>
<polygon fill="#000000" stroke="#000000" points="331.9801,-203.5001 341.9801,-200 331.9801,-196.5001 331.9801,-203.5001"/>
</g>
<!-- dsp_4 -->
<g id="node4" class="node">
<title>dsp_4</title>
<polygon fill="#f0f0f0" stroke="#f0f0f0" points="16,-127 16,-163 70,-163 70,-127 16,-127"/>
<text text-anchor="middle" x="43" y="-142.5" font-family="verdana" font-size="10.00" fill="#000000">DSP</text>
</g>
<!-- imr_4 -->
<g id="node21" class="node">
<title>imr_4</title>
<polygon fill="#c0c0c0" stroke="#c0c0c0" points="514,-176 514,-212 568,-212 568,-176 514,-176"/>
<text text-anchor="middle" x="541" y="-191.5" font-family="verdana" font-size="10.00" fill="#000000">IMR</text>
</g>
<!-- dsp_4&#45;&gt;imr_4 -->
<g id="edge8" class="edge">
<title>dsp_4&#45;&gt;imr_4</title>
<path fill="none" stroke="#000000" d="M70.1283,-145C174.0498,-145 541,-145 541,-145 541,-145 541,-165.7542 541,-165.7542"/>
<polygon fill="#000000" stroke="#000000" points="537.5001,-165.7542 541,-175.7542 544.5001,-165.7542 537.5001,-165.7542"/>
<text text-anchor="middle" x="291.5" y="-152" font-family="verdana" font-size="10.00" fill="#000000">@ 9000 0000</text>
</g>
<!-- dsp_5 -->
<g id="node5" class="node">
<title>dsp_5</title>
<polygon fill="#f0f0f0" stroke="#f0f0f0" points="16,-292 16,-328 70,-328 70,-292 16,-292"/>
<text text-anchor="middle" x="43" y="-307.5" font-family="verdana" font-size="10.00" fill="#000000">DSP</text>
</g>
<!-- l1_5 -->
<g id="node11" class="node">
<title>l1_5</title>
<polygon fill="#e0e0e0" stroke="#e0e0e0" points="178.5,-292 178.5,-328 232.5,-328 232.5,-292 178.5,-292"/>
<text text-anchor="middle" x="205.5" y="-307.5" font-family="verdana" font-size="10.00" fill="#000000">L1</text>
</g>
<!-- dsp_5&#45;&gt;l1_5 -->
<g id="edge9" class="edge">
<title>dsp_5&#45;&gt;l1_5</title>
<path fill="none" stroke="#000000" d="M70.1988,-310C70.1988,-310 168.4833,-310 168.4833,-310"/>
<polygon fill="#000000" stroke="#000000" points="168.4833,-313.5001 178.4833,-310 168.4833,-306.5001 168.4833,-313.5001"/>
</g>
<!-- dsp_6 -->
<g id="node6" class="node">
<title>dsp_6</title>
<polygon fill="#f0f0f0" stroke="#f0f0f0" points="16,-72 16,-108 70,-108 70,-72 16,-72"/>
<text text-anchor="middle" x="43" y="-87.5" font-family="verdana" font-size="10.00" fill="#000000">DSP</text>
</g>
<!-- hpsram_local_6 -->
<g id="node16" class="node">
<title>hpsram_local_6</title>
<polygon fill="#d0d0d0" stroke="#d0d0d0" points="170,-72 170,-108 241,-108 241,-72 170,-72"/>
<text text-anchor="middle" x="205.5" y="-93" font-family="verdana" font-size="10.00" fill="#000000">HPSRAM</text>
<text text-anchor="middle" x="205.5" y="-82" font-family="verdana" font-size="10.00" fill="#000000">Local mem</text>
</g>
<!-- dsp_6&#45;&gt;hpsram_local_6 -->
<g id="edge11" class="edge">
<title>dsp_6&#45;&gt;hpsram_local_6</title>
<path fill="none" stroke="#000000" d="M70.1988,-90C70.1988,-90 159.9556,-90 159.9556,-90"/>
<polygon fill="#000000" stroke="#000000" points="159.9556,-93.5001 169.9556,-90 159.9556,-86.5001 159.9556,-93.5001"/>
<text text-anchor="middle" x="120" y="-93" font-family="verdana" font-size="10.00" fill="#000000">@ 9E00 0000</text>
</g>
<!-- dsp_7 -->
<g id="node7" class="node">
<title>dsp_7</title>
<polygon fill="#f0f0f0" stroke="#f0f0f0" points="16,-237 16,-273 70,-273 70,-237 16,-237"/>
<text text-anchor="middle" x="43" y="-252.5" font-family="verdana" font-size="10.00" fill="#000000">DSP</text>
</g>
<!-- l1_7 -->
<g id="node12" class="node">
<title>l1_7</title>
<polygon fill="#e0e0e0" stroke="#e0e0e0" points="178.5,-237 178.5,-273 232.5,-273 232.5,-237 178.5,-237"/>
<text text-anchor="middle" x="205.5" y="-252.5" font-family="verdana" font-size="10.00" fill="#000000">L1</text>
</g>
<!-- dsp_7&#45;&gt;l1_7 -->
<g id="edge12" class="edge">
<title>dsp_7&#45;&gt;l1_7</title>
<path fill="none" stroke="#000000" d="M70.1988,-255C70.1988,-255 168.4833,-255 168.4833,-255"/>
<polygon fill="#000000" stroke="#000000" points="168.4833,-258.5001 178.4833,-255 168.4833,-251.5001 168.4833,-258.5001"/>
</g>
<!-- dsp_8 -->
<g id="node8" class="node">
<title>dsp_8</title>
<polygon fill="#f0f0f0" stroke="#f0f0f0" points="16,-17 16,-53 70,-53 70,-17 16,-17"/>
<text text-anchor="middle" x="43" y="-32.5" font-family="verdana" font-size="10.00" fill="#000000">DSP</text>
</g>
<!-- lpsram_local_8 -->
<g id="node18" class="node">
<title>lpsram_local_8</title>
<polygon fill="#d0d0d0" stroke="#d0d0d0" points="170,-17 170,-53 241,-53 241,-17 170,-17"/>
<text text-anchor="middle" x="205.5" y="-38" font-family="verdana" font-size="10.00" fill="#000000">LPSRAM</text>
<text text-anchor="middle" x="205.5" y="-27" font-family="verdana" font-size="10.00" fill="#000000">Local mem</text>
</g>
<!-- dsp_8&#45;&gt;lpsram_local_8 -->
<g id="edge14" class="edge">
<title>dsp_8&#45;&gt;lpsram_local_8</title>
<path fill="none" stroke="#000000" d="M70.1988,-35C70.1988,-35 159.9556,-35 159.9556,-35"/>
<polygon fill="#000000" stroke="#000000" points="159.9556,-38.5001 169.9556,-35 159.9556,-31.5001 159.9556,-38.5001"/>
<text text-anchor="middle" x="120" y="-38" font-family="verdana" font-size="10.00" fill="#000000">@9E80 0000</text>
</g>
<!-- hpsram_l2_1 -->
<g id="node13" class="node">
<title>hpsram_l2_1</title>
<polygon fill="#d0d0d0" stroke="#d0d0d0" points="342,-398 342,-434 413,-434 413,-398 342,-398"/>
<text text-anchor="middle" x="377.5" y="-413.5" font-family="verdana" font-size="10.00" fill="#000000">HPSRAM L2</text>
</g>
<!-- l1_1&#45;&gt;hpsram_l2_1 -->
<g id="edge2" class="edge">
<title>l1_1&#45;&gt;hpsram_l2_1</title>
<path fill="none" stroke="#000000" d="M232.7539,-418C232.7539,-418 331.7122,-418 331.7122,-418"/>
<polygon fill="#000000" stroke="#000000" points="331.7122,-421.5001 341.7122,-418 331.7121,-414.5001 331.7122,-421.5001"/>
</g>
<!-- imr_2 -->
<g id="node20" class="node">
<title>imr_2</title>
<polygon fill="#c0c0c0" stroke="#c0c0c0" points="514,-286 514,-322 568,-322 568,-286 514,-286"/>
<text text-anchor="middle" x="541" y="-301.5" font-family="verdana" font-size="10.00" fill="#000000">IMR</text>
</g>
<!-- l1_2&#45;&gt;imr_2 -->
<g id="edge5" class="edge">
<title>l1_2&#45;&gt;imr_2</title>
<path fill="none" stroke="#000000" d="M232.7337,-362C295.8921,-362 447,-362 447,-362 447,-362 447,-307 447,-307 447,-307 503.8113,-307 503.8113,-307"/>
<polygon fill="#000000" stroke="#000000" points="503.8113,-310.5001 513.8113,-307 503.8113,-303.5001 503.8113,-310.5001"/>
<text text-anchor="middle" x="377.5" y="-368" font-family="verdana" font-size="10.00" fill="#000000">@ B000 0000</text>
</g>
<!-- hpsram_local_5 -->
<g id="node15" class="node">
<title>hpsram_local_5</title>
<polygon fill="#d0d0d0" stroke="#d0d0d0" points="342,-292 342,-328 413,-328 413,-292 342,-292"/>
<text text-anchor="middle" x="377.5" y="-313" font-family="verdana" font-size="10.00" fill="#000000">HPSRAM</text>
<text text-anchor="middle" x="377.5" y="-302" font-family="verdana" font-size="10.00" fill="#000000">Local mem</text>
</g>
<!-- l1_5&#45;&gt;hpsram_local_5 -->
<g id="edge10" class="edge">
<title>l1_5&#45;&gt;hpsram_local_5</title>
<path fill="none" stroke="#000000" d="M232.7539,-310C232.7539,-310 331.7122,-310 331.7122,-310"/>
<polygon fill="#000000" stroke="#000000" points="331.7122,-313.5001 341.7122,-310 331.7121,-306.5001 331.7122,-313.5001"/>
<text text-anchor="middle" x="291.5" y="-313" font-family="verdana" font-size="10.00" fill="#000000">@ BE00 0000</text>
</g>
<!-- lpsram_local_7 -->
<g id="node17" class="node">
<title>lpsram_local_7</title>
<polygon fill="#d0d0d0" stroke="#d0d0d0" points="342,-237 342,-273 413,-273 413,-237 342,-237"/>
<text text-anchor="middle" x="377.5" y="-258" font-family="verdana" font-size="10.00" fill="#000000">LPSRAM</text>
<text text-anchor="middle" x="377.5" y="-247" font-family="verdana" font-size="10.00" fill="#000000">Local mem</text>
</g>
<!-- l1_7&#45;&gt;lpsram_local_7 -->
<g id="edge13" class="edge">
<title>l1_7&#45;&gt;lpsram_local_7</title>
<path fill="none" stroke="#000000" d="M232.7539,-255C232.7539,-255 331.7122,-255 331.7122,-255"/>
<polygon fill="#000000" stroke="#000000" points="331.7122,-258.5001 341.7122,-255 331.7121,-251.5001 331.7122,-258.5001"/>
<text text-anchor="middle" x="291.5" y="-258" font-family="verdana" font-size="10.00" fill="#000000">@BE80 0000</text>
</g>
<!-- imr_1 -->
<g id="node19" class="node">
<title>imr_1</title>
<polygon fill="#c0c0c0" stroke="#c0c0c0" points="514,-341 514,-377 568,-377 568,-341 514,-341"/>
<text text-anchor="middle" x="541" y="-356.5" font-family="verdana" font-size="10.00" fill="#000000">IMR</text>
</g>
<!-- hpsram_l2_1&#45;&gt;imr_1 -->
<g id="edge3" class="edge">
<title>hpsram_l2_1&#45;&gt;imr_1</title>
<path fill="none" stroke="#000000" d="M413.3808,-416C461.5097,-416 541,-416 541,-416 541,-416 541,-387.0352 541,-387.0352"/>
<polygon fill="#000000" stroke="#000000" points="544.5001,-387.0351 541,-377.0352 537.5001,-387.0352 544.5001,-387.0351"/>
<text text-anchor="middle" x="463.5" y="-408" font-family="verdana" font-size="10.00" fill="#000000">@ A000 0000</text>
</g>
<!-- imr_3 -->
<g id="node22" class="node">
<title>imr_3</title>
<polygon fill="#c0c0c0" stroke="#c0c0c0" points="514,-231 514,-267 568,-267 568,-231 514,-231"/>
<text text-anchor="middle" x="541" y="-246.5" font-family="verdana" font-size="10.00" fill="#000000">IMR</text>
</g>
<!-- hpsram_l2_3&#45;&gt;imr_3 -->
<g id="edge7" class="edge">
<title>hpsram_l2_3&#45;&gt;imr_3</title>
<path fill="none" stroke="#000000" d="M413.1188,-197C443.0577,-197 481,-197 481,-197 481,-197 481,-252 481,-252 481,-252 503.8088,-252 503.8088,-252"/>
<polygon fill="#000000" stroke="#000000" points="503.8089,-255.5001 513.8088,-252 503.8088,-248.5001 503.8089,-255.5001"/>
<text text-anchor="middle" x="463.5" y="-205" font-family="verdana" font-size="10.00" fill="#000000">@ 8000 0000</text>
</g>
</g>
</svg>
