<?xml version="1.0" encoding="UTF-8" standalone="no"?>
<!DOCTYPE svg PUBLIC "-//W3C//DTD SVG 1.1//EN"
 "http://www.w3.org/Graphics/SVG/1.1/DTD/svg11.dtd">
<!-- Generated by graphviz version 2.40.1 (20161225.0304)
 -->
<!-- Title: memory_zones Pages: 1 -->
<svg width="216pt" height="77pt"
 viewBox="0.00 0.00 216.00 77.04" xmlns="http://www.w3.org/2000/svg" xmlns:xlink="http://www.w3.org/1999/xlink">
<g id="graph0" class="graph" transform="scale(.6835 .6835) rotate(0) translate(4 108.712)">
<title>memory_zones</title>
<polygon fill="#ffffff" stroke="transparent" points="-4,4 -4,-108.712 312,-108.712 312,4 -4,4"/>
<!-- clients -->
<g id="node1" class="node">
<title>clients</title>
<polygon fill="none" stroke="#000000" points="0,-24.212 0,-93.212 102,-93.212 102,-24.212 0,-24.212"/>
<text text-anchor="middle" x="51" y="-78.012" font-family="verdana" font-size="14.00" fill="#000000">applications</text>
<polyline fill="none" stroke="#000000" points="0,-70.212 102,-70.212 "/>
<text text-anchor="middle" x="51" y="-55.012" font-family="verdana" font-size="14.00" fill="#000000">kernel</text>
<polyline fill="none" stroke="#000000" points="0,-47.212 102,-47.212 "/>
<text text-anchor="middle" x="51" y="-32.012" font-family="verdana" font-size="14.00" fill="#000000">drivers</text>
</g>
<!-- zones -->
<g id="node2" class="node">
<title>zones</title>
<polygon fill="none" stroke="#000000" points="138,-35.212 138,-104.212 308,-104.212 308,-35.212 138,-35.212"/>
<text text-anchor="middle" x="223" y="-89.012" font-family="verdana" font-size="14.00" fill="#000000">runtime zone</text>
<polyline fill="none" stroke="#000000" points="138,-81.212 308,-81.212 "/>
<text text-anchor="middle" x="223" y="-66.012" font-family="verdana" font-size="14.00" fill="#000000">buffer zone</text>
<polyline fill="none" stroke="#000000" points="138,-58.212 308,-58.212 "/>
<text text-anchor="middle" x="191.5" y="-43.012" font-family="verdana" font-size="14.00" fill="#000000">system zone</text>
<polyline fill="none" stroke="#000000" points="245,-35.212 245,-58.212 "/>
<text text-anchor="middle" x="276.5" y="-43.012" font-family="verdana" font-size="14.00" fill="#000000">sys rt?</text>
</g>
<!-- clients&#45;&gt;zones -->
<g id="edge1" class="edge">
<title>clients:apps&#45;&gt;zones:rt</title>
<path fill="none" stroke="#000000" d="M102,-81.712C114.6784,-81.712 119.2073,-88.0291 127.9383,-91.089"/>
<polygon fill="#000000" stroke="#000000" points="127.5702,-94.5747 138,-92.712 128.685,-87.6641 127.5702,-94.5747"/>
</g>
<!-- clients&#45;&gt;zones -->
<g id="edge2" class="edge">
<title>clients:apps&#45;&gt;zones:buf</title>
<path fill="none" stroke="#000000" d="M102,-81.712C114.7809,-81.712 119.1793,-74.8207 127.8999,-71.4827"/>
<polygon fill="#000000" stroke="#000000" points="128.7546,-74.8863 138,-69.712 127.5458,-67.9915 128.7546,-74.8863"/>
</g>
<!-- clients&#45;&gt;zones -->
<g id="edge3" class="edge">
<title>clients:kernel&#45;&gt;zones:sys</title>
<path fill="none" stroke="#000000" d="M102.363,-49.2569C110.6624,-48.1996 119.3163,-47.3594 127.7897,-46.962"/>
<polygon fill="#000000" stroke="#000000" points="128.0887,-50.4558 138,-46.712 127.9173,-43.4579 128.0887,-50.4558"/>
</g>
<!-- clients&#45;&gt;zones -->
<g id="edge4" class="edge">
<title>clients:drv&#45;&gt;zones:sys_rt</title>
<path fill="none" stroke="#000000" stroke-dasharray="1,5" d="M102,-35.712C175.9812,-35.712 267.5521,35.5616 276.3182,-24.411"/>
<polygon fill="#000000" stroke="#000000" points="272.8471,-24.9651 277,-34.712 279.8318,-24.5027 272.8471,-24.9651"/>
</g>
</g>
</svg>
