<?xml version="1.0" encoding="UTF-8" standalone="no"?><svg xmlns="http://www.w3.org/2000/svg" xmlns:xlink="http://www.w3.org/1999/xlink" contentScriptType="application/ecmascript" contentStyleType="text/css" height="402px" preserveAspectRatio="none" style="width:566px;height:402px;" version="1.1" viewBox="0 0 566 402" width="566px" zoomAndPan="magnify"><defs><filter height="300%" id="f1052tmf73usmp" width="300%" x="-1" y="-1"><feGaussianBlur result="blurOut" stdDeviation="2.0"/><feColorMatrix in="blurOut" result="blurOut2" type="matrix" values="0 0 0 0 0 0 0 0 0 0 0 0 0 0 0 0 0 0 .4 0"/><feOffset dx="4.0" dy="4.0" in="blurOut2" result="blurOut3"/><feBlend in="SourceGraphic" in2="blurOut3" mode="normal"/></filter></defs><g><!--cluster component--><polygon fill="#FFFFFF" filter="url(#f1052tmf73usmp)" points="14,16,109,16,116,38.2969,544,38.2969,544,390,14,390,14,16" style="stroke: #000000; stroke-width: 1.5;"/><line style="stroke: #000000; stroke-width: 1.5;" x1="14" x2="116" y1="38.2969" y2="38.2969"/><text fill="#33335B" font-family="sans-serif" font-size="14" font-weight="bold" lengthAdjust="spacingAndGlyphs" textLength="89" x="18" y="30.9951">component</text><!--class comp_driver--><rect fill="#FFFFFF" filter="url(#f1052tmf73usmp)" height="78.4141" id="comp_driver" style="stroke: #33335B; stroke-width: 1.5;" width="127" x="22.5" y="88"/><ellipse cx="46.5" cy="104" fill="#6FCCDD" rx="11" ry="11" style="stroke: #33335B; stroke-width: 1.0;"/><path d="M49.4688,109.6406 Q48.8906,109.9375 48.25,110.0781 Q47.6094,110.2344 46.9063,110.2344 Q44.4063,110.2344 43.0781,108.5938 Q41.7656,106.9375 41.7656,103.8125 Q41.7656,100.6875 43.0781,99.0313 Q44.4063,97.375 46.9063,97.375 Q47.6094,97.375 48.25,97.5313 Q48.9063,97.6875 49.4688,97.9844 L49.4688,100.7031 Q48.8438,100.125 48.25,99.8594 Q47.6563,99.5781 47.0313,99.5781 Q45.6875,99.5781 45,100.6563 Q44.3125,101.7188 44.3125,103.8125 Q44.3125,105.9063 45,106.9844 Q45.6875,108.0469 47.0313,108.0469 Q47.6563,108.0469 48.25,107.7813 Q48.8438,107.5 49.4688,106.9219 L49.4688,109.6406 Z "/><text fill="#33335B" font-family="sans-serif" font-size="12" lengthAdjust="spacingAndGlyphs" textLength="75" x="62.5" y="108.1543">comp_driver</text><line style="stroke: #33335B; stroke-width: 1.5;" x1="23.5" x2="148.5" y1="120" y2="120"/><text fill="#33335B" font-family="sans-serif" font-size="11" lengthAdjust="spacingAndGlyphs" textLength="81" x="28.5" y="134.2104">type : uint32_t</text><text fill="#33335B" font-family="sans-serif" font-size="11" lengthAdjust="spacingAndGlyphs" textLength="115" x="28.5" y="147.0151">module_id : uint32_t</text><text fill="#33335B" font-family="sans-serif" font-size="11" lengthAdjust="spacingAndGlyphs" textLength="91" x="28.5" y="159.8198">ops : comp_ops</text><!--class comp_ops--><rect fill="#FFFFFF" filter="url(#f1052tmf73usmp)" height="32" id="comp_ops" style="stroke: #33335B; stroke-width: 1.5;" width="95" x="38.5" y="350"/><ellipse cx="53.5" cy="366" fill="#6FCCDD" rx="11" ry="11" style="stroke: #33335B; stroke-width: 1.0;"/><path d="M56.4688,371.6406 Q55.8906,371.9375 55.25,372.0781 Q54.6094,372.2344 53.9063,372.2344 Q51.4063,372.2344 50.0781,370.5938 Q48.7656,368.9375 48.7656,365.8125 Q48.7656,362.6875 50.0781,361.0313 Q51.4063,359.375 53.9063,359.375 Q54.6094,359.375 55.25,359.5313 Q55.9063,359.6875 56.4688,359.9844 L56.4688,362.7031 Q55.8438,362.125 55.25,361.8594 Q54.6563,361.5781 54.0313,361.5781 Q52.6875,361.5781 52,362.6563 Q51.3125,363.7188 51.3125,365.8125 Q51.3125,367.9063 52,368.9844 Q52.6875,370.0469 54.0313,370.0469 Q54.6563,370.0469 55.25,369.7813 Q55.8438,369.5 56.4688,368.9219 L56.4688,371.6406 Z "/><text fill="#33335B" font-family="sans-serif" font-size="12" lengthAdjust="spacingAndGlyphs" textLength="63" x="67.5" y="370.1543">comp_ops</text><!--class comp_dev--><rect fill="#FFFFFF" filter="url(#f1052tmf73usmp)" height="168.0469" id="comp_dev" style="stroke: #33335B; stroke-width: 1.5;" width="205" x="331.5" y="43"/><ellipse cx="398.75" cy="59" fill="#6FCCDD" rx="11" ry="11" style="stroke: #33335B; stroke-width: 1.0;"/><path d="M401.7188,64.6406 Q401.1406,64.9375 400.5,65.0781 Q399.8594,65.2344 399.1563,65.2344 Q396.6563,65.2344 395.3281,63.5938 Q394.0156,61.9375 394.0156,58.8125 Q394.0156,55.6875 395.3281,54.0313 Q396.6563,52.375 399.1563,52.375 Q399.8594,52.375 400.5,52.5313 Q401.1563,52.6875 401.7188,52.9844 L401.7188,55.7031 Q401.0938,55.125 400.5,54.8594 Q399.9063,54.5781 399.2813,54.5781 Q397.9375,54.5781 397.25,55.6563 Q396.5625,56.7188 396.5625,58.8125 Q396.5625,60.9063 397.25,61.9844 Q397.9375,63.0469 399.2813,63.0469 Q399.9063,63.0469 400.5,62.7813 Q401.0938,62.5 401.7188,61.9219 L401.7188,64.6406 Z "/><text fill="#33335B" font-family="sans-serif" font-size="12" lengthAdjust="spacingAndGlyphs" textLength="62" x="419.25" y="63.1543">comp_dev</text><line style="stroke: #33335B; stroke-width: 1.5;" x1="332.5" x2="535.5" y1="75" y2="75"/><text fill="#33335B" font-family="sans-serif" font-size="11" lengthAdjust="spacingAndGlyphs" textLength="106" x="337.5" y="89.2104">drv : comp_driver*</text><text fill="#33335B" font-family="sans-serif" font-size="11" lengthAdjust="spacingAndGlyphs" textLength="0" x="341.5" y="102.0151"/><text fill="#33335B" font-family="sans-serif" font-size="11" font-style="italic" lengthAdjust="spacingAndGlyphs" textLength="154" x="337.5" y="114.8198">more params goes here ...</text><text fill="#33335B" font-family="sans-serif" font-size="11" lengthAdjust="spacingAndGlyphs" textLength="0" x="341.5" y="127.6245"/><text fill="#33335B" font-family="sans-serif" font-size="11" lengthAdjust="spacingAndGlyphs" textLength="193" x="337.5" y="140.4292">params : sof_ipc_stream_params</text><text fill="#33335B" font-family="sans-serif" font-size="11" lengthAdjust="spacingAndGlyphs" textLength="0" x="341.5" y="153.2339"/><text fill="#33335B" font-family="sans-serif" font-size="11" lengthAdjust="spacingAndGlyphs" textLength="69" x="337.5" y="166.0386">bsource_list</text><text fill="#33335B" font-family="sans-serif" font-size="11" lengthAdjust="spacingAndGlyphs" textLength="53" x="337.5" y="178.8433">bsink_list</text><text fill="#33335B" font-family="sans-serif" font-size="11" lengthAdjust="spacingAndGlyphs" textLength="76" x="337.5" y="191.6479">private: void*</text><text fill="#33335B" font-family="sans-serif" font-size="11" lengthAdjust="spacingAndGlyphs" textLength="120" x="337.5" y="204.4526">comp : sof_ipc_comp</text><!--link comp_driver to comp_ops--><path d="M86,166.1984 C86,217.2741 86,304.7764 86,344.8433 " fill="none" id="comp_driver-comp_ops" style="stroke: #4A4A86; stroke-width: 1.0;"/><polygon fill="#4A4A86" points="86,349.9456,90,340.9456,86,344.9456,82,340.9456,86,349.9456" style="stroke: #4A4A86; stroke-width: 1.0;"/><text fill="#33335B" font-family="sans-serif" font-size="13" lengthAdjust="spacingAndGlyphs" textLength="54" x="87" y="285.0669">provides</text><text fill="#33335B" font-family="sans-serif" font-size="13" lengthAdjust="spacingAndGlyphs" textLength="23" x="59.0469" y="338.9385">ops</text><!--link comp_driver to comp_dev--><path d="M149.8286,127 C199.0654,127 268.2962,127 326.0969,127 " fill="none" id="comp_driver-comp_dev" style="stroke: #4A4A86; stroke-width: 1.0;"/><polygon fill="#4A4A86" points="331.2983,127,322.2983,123,326.2983,127,322.2983,131,331.2983,127" style="stroke: #4A4A86; stroke-width: 1.0;"/><text fill="#33335B" font-family="sans-serif" font-size="13" lengthAdjust="spacingAndGlyphs" textLength="145" x="168" y="120.0669">creates in comp_new()</text><!--
@startuml
hidefootbox
skinparam componentStyle uml2

skinparam defaultFontColor	#33335b

skinparam rectangle {
	color		#d6d6de
	backgroundColor	#ffffff
}

skinparam component {
	backgroundColor	#ffffff
	borderColor	#33335b
	arrowColor	#f05772
}

skinparam interface {
	backgroundColor	#ffffff
	borderColor	#f05772
}

skinparam class {
	backgroundColor	#ffffff
	borderColor	#33335b
	arrowColor	#f05772
}
skinparam stereotypeCBackgroundColor	#6fccdd

skinparam sequence {
	arrowColor		#4a4a86
	lifeLineBorderColor	#f05772
	groupBorderColor	#a1a1ca
	boxBorderColor		#a1a1ca
	dividerBorderColor	#d6d6de
	dividerBorderThickness	1
}
skinparam participant {
	borderColor		#33335b
	backgroundColor		#ffffff
}
skinparam actor {
	borderColor		#33335b
	backgroundColor		#ffffff
}

skinparam state {
	borderColor		#33335b
	backgroundColor		#ffffff
}

skinparam node {
	backgroundColor		#ffffff
}

skinparam note {
	backgroundColor 	#f6ed80
	borderColor		#d6d6de
}
package component {

   class comp_driver {
   	type : uint32_t
   	module_id : uint32_t
   	ops : comp_ops
   }
   hide comp_driver methods

   class comp_ops
   hide comp_ops methods
   hide comp_ops attributes

   class comp_dev {
   	drv : comp_driver*

   	<i>more params goes here ...</i>

   	params : sof_ipc_stream_params

   	bsource_list
   	bsink_list
   	private: void*
   	comp : sof_ipc_comp
   }
   hide comp_dev methods

   comp_driver - -> "ops" comp_ops : provides

   comp_driver -> comp_dev : creates in comp_new()
}

@enduml

PlantUML version 1.2018.06(Mon May 21 10:34:53 GMT 2018)
(GPL source distribution)
Java Runtime: OpenJDK Runtime Environment
JVM: OpenJDK 64-Bit Server VM
Java Version: 10.0.1+10-Ubuntu-3ubuntu1
Operating System: Linux
OS Version: 4.4.0-43-Microsoft
Default Encoding: UTF-8
Language: en
Country: null
--></g></svg>