<?xml version="1.0" encoding="UTF-8" standalone="no"?><svg xmlns="http://www.w3.org/2000/svg" xmlns:xlink="http://www.w3.org/1999/xlink" contentScriptType="application/ecmascript" contentStyleType="text/css" height="321px" preserveAspectRatio="none" style="width:427px;height:321px;" version="1.1" viewBox="0 0 427 321" width="427px" zoomAndPan="magnify"><defs><filter height="300%" id="fdn0htqbc4b3p" width="300%" x="-1" y="-1"><feGaussianBlur result="blurOut" stdDeviation="2.0"/><feColorMatrix in="blurOut" result="blurOut2" type="matrix" values="0 0 0 0 0 0 0 0 0 0 0 0 0 0 0 0 0 0 .4 0"/><feOffset dx="4.0" dy="4.0" in="blurOut2" result="blurOut3"/><feBlend in="SourceGraphic" in2="blurOut3" mode="normal"/></filter></defs><g><!--cluster cavs--><polygon fill="#FFFFFF" filter="url(#fdn0htqbc4b3p)" points="55,122,97,122,104,144.2969,230,144.2969,230,203,55,203,55,122" style="stroke: #000000; stroke-width: 1.5;"/><line style="stroke: #000000; stroke-width: 1.5;" x1="55" x2="104" y1="144.2969" y2="144.2969"/><text fill="#33335B" font-family="sans-serif" font-size="14" font-weight="bold" lengthAdjust="spacingAndGlyphs" textLength="36" x="59" y="136.9951">cavs</text><!--cluster arch--><polygon fill="#FFFFFF" filter="url(#fdn0htqbc4b3p)" points="37,228,78,228,85,250.2969,405,250.2969,405,309,37,309,37,228" style="stroke: #000000; stroke-width: 1.5;"/><line style="stroke: #000000; stroke-width: 1.5;" x1="37" x2="85" y1="250.2969" y2="250.2969"/><text fill="#33335B" font-family="sans-serif" font-size="14" font-weight="bold" lengthAdjust="spacingAndGlyphs" textLength="35" x="41" y="242.9951">arch</text><!--cluster platform--><polygon fill="#FFFFFF" filter="url(#fdn0htqbc4b3p)" points="14,16,86,16,93,38.2969,295,38.2969,295,97,14,97,14,16" style="stroke: #000000; stroke-width: 1.5;"/><line style="stroke: #000000; stroke-width: 1.5;" x1="14" x2="93" y1="38.2969" y2="38.2969"/><text fill="#33335B" font-family="sans-serif" font-size="14" font-weight="bold" lengthAdjust="spacingAndGlyphs" textLength="66" x="18" y="30.9951">platform</text><!--entity 1.5--><rect fill="#FFFFFF" filter="url(#fdn0htqbc4b3p)" height="46.2969" style="stroke: #33335B; stroke-width: 1.5;" width="62" x="160" y="149"/><rect fill="#FFFFFF" height="10" style="stroke: #33335B; stroke-width: 1.5;" width="15" x="202" y="154"/><rect fill="#FFFFFF" height="2" style="stroke: #33335B; stroke-width: 1.5;" width="4" x="200" y="156"/><rect fill="#FFFFFF" height="2" style="stroke: #33335B; stroke-width: 1.5;" width="4" x="200" y="160"/><text fill="#33335B" font-family="sans-serif" font-size="14" lengthAdjust="spacingAndGlyphs" textLength="22" x="175" y="181.9951">1.5</text><!--entity 1.8--><rect fill="#FFFFFF" filter="url(#fdn0htqbc4b3p)" height="46.2969" style="stroke: #33335B; stroke-width: 1.5;" width="62" x="63" y="149"/><rect fill="#FFFFFF" height="10" style="stroke: #33335B; stroke-width: 1.5;" width="15" x="105" y="154"/><rect fill="#FFFFFF" height="2" style="stroke: #33335B; stroke-width: 1.5;" width="4" x="103" y="156"/><rect fill="#FFFFFF" height="2" style="stroke: #33335B; stroke-width: 1.5;" width="4" x="103" y="160"/><text fill="#33335B" font-family="sans-serif" font-size="14" lengthAdjust="spacingAndGlyphs" textLength="22" x="78" y="181.9951">1.8</text><!--entity host--><rect fill="#FFFFFF" filter="url(#fdn0htqbc4b3p)" height="46.2969" style="stroke: #33335B; stroke-width: 1.5;" width="71" x="325.5" y="255"/><rect fill="#FFFFFF" height="10" style="stroke: #33335B; stroke-width: 1.5;" width="15" x="376.5" y="260"/><rect fill="#FFFFFF" height="2" style="stroke: #33335B; stroke-width: 1.5;" width="4" x="374.5" y="262"/><rect fill="#FFFFFF" height="2" style="stroke: #33335B; stroke-width: 1.5;" width="4" x="374.5" y="266"/><text fill="#33335B" font-family="sans-serif" font-size="14" lengthAdjust="spacingAndGlyphs" textLength="31" x="340.5" y="287.9951">host</text><!--entity xtensa--><rect fill="#FFFFFF" filter="url(#fdn0htqbc4b3p)" height="46.2969" style="stroke: #33335B; stroke-width: 1.5;" width="86" x="204" y="255"/><rect fill="#FFFFFF" height="10" style="stroke: #33335B; stroke-width: 1.5;" width="15" x="270" y="260"/><rect fill="#FFFFFF" height="2" style="stroke: #33335B; stroke-width: 1.5;" width="4" x="268" y="262"/><rect fill="#FFFFFF" height="2" style="stroke: #33335B; stroke-width: 1.5;" width="4" x="268" y="266"/><text fill="#33335B" font-family="sans-serif" font-size="14" lengthAdjust="spacingAndGlyphs" textLength="46" x="219" y="287.9951">xtensa</text><!--entity xtensa_smp--><rect fill="#FFFFFF" filter="url(#fdn0htqbc4b3p)" height="46.2969" style="stroke: #33335B; stroke-width: 1.5;" width="123" x="45.5" y="255"/><rect fill="#FFFFFF" height="10" style="stroke: #33335B; stroke-width: 1.5;" width="15" x="148.5" y="260"/><rect fill="#FFFFFF" height="2" style="stroke: #33335B; stroke-width: 1.5;" width="4" x="146.5" y="262"/><rect fill="#FFFFFF" height="2" style="stroke: #33335B; stroke-width: 1.5;" width="4" x="146.5" y="266"/><text fill="#33335B" font-family="sans-serif" font-size="14" lengthAdjust="spacingAndGlyphs" textLength="83" x="60.5" y="287.9951">xtensa_smp</text><!--entity apollolake--><rect fill="#FFFFFF" filter="url(#fdn0htqbc4b3p)" height="46.2969" style="stroke: #33335B; stroke-width: 1.5;" width="109" x="177.5" y="43"/><rect fill="#FFFFFF" height="10" style="stroke: #33335B; stroke-width: 1.5;" width="15" x="266.5" y="48"/><rect fill="#FFFFFF" height="2" style="stroke: #33335B; stroke-width: 1.5;" width="4" x="264.5" y="50"/><rect fill="#FFFFFF" height="2" style="stroke: #33335B; stroke-width: 1.5;" width="4" x="264.5" y="54"/><text fill="#33335B" font-family="sans-serif" font-size="14" lengthAdjust="spacingAndGlyphs" textLength="69" x="192.5" y="75.9951">apollolake</text><!--entity cannonlake--><rect fill="#FFFFFF" filter="url(#fdn0htqbc4b3p)" height="46.2969" style="stroke: #33335B; stroke-width: 1.5;" width="120" x="22" y="43"/><rect fill="#FFFFFF" height="10" style="stroke: #33335B; stroke-width: 1.5;" width="15" x="122" y="48"/><rect fill="#FFFFFF" height="2" style="stroke: #33335B; stroke-width: 1.5;" width="4" x="120" y="50"/><rect fill="#FFFFFF" height="2" style="stroke: #33335B; stroke-width: 1.5;" width="4" x="120" y="54"/><text fill="#33335B" font-family="sans-serif" font-size="14" lengthAdjust="spacingAndGlyphs" textLength="80" x="37" y="75.9951">cannonlake</text><!--link 1.5 to xtensa_smp--><path d="M172.7733,195.0004 C159.8734,211.2789 142.5121,233.1871 128.8657,250.4076 " fill="none" id="1.5-xtensa_smp" style="stroke: #4A4A86; stroke-width: 1.0; stroke-dasharray: 7.0,7.0;"/><polygon fill="#4A4A86" points="125.4813,254.6784,134.206,250.1089,128.5867,250.7596,127.9359,245.1403,125.4813,254.6784" style="stroke: #4A4A86; stroke-width: 1.0;"/><!--link 1.8 to xtensa_smp--><path d="M96.8208,195.0004 C98.7834,211.003 101.4132,232.4461 103.5082,249.528 " fill="none" id="1.8-xtensa_smp" style="stroke: #4A4A86; stroke-width: 1.0; stroke-dasharray: 7.0,7.0;"/><polygon fill="#4A4A86" points="104.1398,254.6784,107.0141,245.2583,103.531,249.7156,99.0736,246.2325,104.1398,254.6784" style="stroke: #4A4A86; stroke-width: 1.0;"/><!--link apollolake to 1.5--><path d="M223.1036,89.0004 C216.8606,105.1409 208.4768,126.8162 201.8423,143.9688 " fill="none" id="apollolake-1.5" style="stroke: #4A4A86; stroke-width: 1.0; stroke-dasharray: 7.0,7.0;"/><polygon fill="#4A4A86" points="200.0206,148.6784,206.9979,141.7273,201.8243,144.0151,199.5366,138.8414,200.0206,148.6784" style="stroke: #4A4A86; stroke-width: 1.0;"/><!--link cannonlake to 1.8--><path d="M84.6038,89.0004 C86.4154,105.003 88.843,126.4461 90.7768,143.528 " fill="none" id="cannonlake-1.8" style="stroke: #4A4A86; stroke-width: 1.0; stroke-dasharray: 7.0,7.0;"/><polygon fill="#4A4A86" points="91.3598,148.6784,94.322,139.2856,90.7974,143.7101,86.3728,140.1855,91.3598,148.6784" style="stroke: #4A4A86; stroke-width: 1.0;"/><!--
@startuml
hidefootbox
skinparam componentStyle uml2

skinparam defaultFontColor	#33335b

skinparam rectangle {
	color		#d6d6de
	backgroundColor	#ffffff
}

skinparam component {
	backgroundColor	#ffffff
	borderColor	#33335b
	arrowColor	#f05772
}

skinparam interface {
	backgroundColor	#ffffff
	borderColor	#f05772
}

skinparam class {
	backgroundColor	#ffffff
	borderColor	#33335b
	arrowColor	#f05772
}
skinparam stereotypeCBackgroundColor	#6fccdd

skinparam sequence {
	arrowColor		#4a4a86
	lifeLineBorderColor	#f05772
	groupBorderColor	#a1a1ca
	boxBorderColor		#a1a1ca
	dividerBorderColor	#d6d6de
	dividerBorderThickness	1
}
skinparam participant {
	borderColor		#33335b
	backgroundColor		#ffffff
}
skinparam actor {
	borderColor		#33335b
	backgroundColor		#ffffff
}

skinparam state {
	borderColor		#33335b
	backgroundColor		#ffffff
}

skinparam node {
	backgroundColor		#ffffff
}

skinparam note {
	backgroundColor 	#f6ed80
	borderColor		#d6d6de
}
package cavs {
   component 1.5
   component 1.8
}

package arch {
   component host
   component xtensa
   component xtensa_smp
}

1.5 ..> xtensa_smp
1.8 ..> xtensa_smp

package platform {
   component apollolake
   component cannonlake
}

apollolake ..> 1.5
cannonlake ..> 1.8

@enduml

PlantUML version 1.2018.06(Mon May 21 03:34:53 PDT 2018)
(GPL source distribution)
Java Runtime: OpenJDK Runtime Environment
JVM: OpenJDK 64-Bit Server VM
Java Version: 10.0.2+13-Ubuntu-1ubuntu0.18.04.1
Operating System: Linux
OS Version: 4.15.0-33-generic
Default Encoding: UTF-8
Language: en
Country: US
--></g></svg>